<?xml version="1.0" encoding="UTF-8" standalone="no"?>
<svg height="2560" width="2560" viewBox="2560, 2560" xmlns="http://www.w3.org/2000/svg" style="background:transparent">
	<!--jpg-->
	<polyline points="2550,2160 2550,2240 0,160 740,700 730,700 0,10 10,20 0,1180 0,1180 0,0 2550,2260 20,1760 730,670 670,950 800,820 790,700 730,760 690,0 10,10 0,0 20,1600 1080,990 1090,1150 40,480 0,0 1090,1100 1160,1140 820,710 660,320 880,890 900,320 70,2280 0,10 0,140 0,70 0,80 0,590 970,990 1150,1120 650,800 800,760 0,0 0,0 0,0 0,0 0,0 0,0 0,0 0,0 0,0 0,0 0,0 0,0 0,0 2460,2140 0,10 0,0 0,0 2110,450 1080,990 1090,1150 0,0 0,0 0,0 0,0 0,0 0,0 0,0 0,0 0,0 0,0 0,0 0,0 0,0 0,0 0,0 0,0 0,0 0,0 0,0 0,0 0,0 0,0 0,0 0,130 1000,1010 1150,990 0,0 10,320 0,0 0,640 990,1120 1140,1160 0,0 10,960 0,0 0,540 1190,1160 1120,1160 0,0 10,1520 0,0 0,200 990,1040 970,1000 0,0 10,1720 0,0 0,440 1140,880 890,900 0,0 10,2160 0,0 0,200 980,880 890,900 0,0 10,2360 0,0 0,200 1030,880 890,900 0,0 20,0 0,0 0,200 1140,840 820,670 0,0 20,200 0,0 0,320 1030,840 820,670 0,0 20,200 0,0 0,320 980,840 820,670 0,0 20,200 0,0 0,320 990,1040 1140,1090 0,0 20,520 0,0 0,360 1000,1090 1100,1000 0,0 20,880 0,0 0,360 1000,1090 1000,1000 0,0 20,1240 0,0 0,360 1090,1080 1170,990 0,0 0,0 0,0 0,10 0,0 0,120 1010,1100 850,830 0,0 0,360 0,0 0,280 0,710 0,730 0,770 0,800 0,320 0,980 0,1170 0,1050 0,1080 0,1160 0,450 0,1050 0,1100 0,320 0,1150 0,820 0,710 0,660 1090,1080 1170,990 0,0 0,0 0,0 0,10 0,0 0,120 1010,1100 850,830 0,0 0,260 0,0 0,280 0,800 0,1170 0,980 0,1080 0,1050 0,990 0,320 0,680 0,1110 0,1090 0,970 0,1050 0,1100 0,0 880,890 900,320 0,0 0,0 0,0 2460,2140 0,10 0,0 0,0 2110,450 1150,1020 510,500 0,0 0,0 0,10 120,660 0,0 50,2220 2550,2550 2430,370 0,0 70,1470 0,0 2530,1440 2550,2550 2510,1610 " style="stroke:#f8ffff;fill:none;stroke-width:1" />
	<polyline points="2550,2550 2530,1620 0,0 30,2200 0,0 1920,1100 880,890 900,320 0,0 0,0 0,0 1110,1600 0,0 560,2450 0,0 30,1440 880,890 900,320 0,0 0,0 0,0 360,1590 0,0 150,1320 0,0 1820,1960 880,890 900,320 0,0 0,0 0,0 980,1510 0,0 1830,1350 0,0 240,2170 1120,970 1140,970 0,0 0,0 0,30 0,0 0,20 1020,1020 0,0 2420,1670 0,0 130,890 0,0 190,2080 0,0 100,910 990,1040 1140,1090 0,0 0,0 0,30 0,0 0,0 1630,2150 0,0 840,1240 0,0 760,2050 0,0 1530,1540 0,0 380,1030 0,0 150,920 1090,1080 1170,990 0,0 0,0 0,0 0,10 0,0 0,120 1010,1100 850,830 0,0 0,80 0,0 0,280 0,710 0,730 0,770 0,800 1090,1080 1170,990 0,0 0,0 0,0 0,10 0,0 0,120 1010,1100 850,830 0,0 0,80 0,0 0,280 0,1150 0,820 0,710 0,660 2550,2190 0,670 0,10 10,10 10,10 10,10 10,10 10,10 10,10 10,10 10,10 10,10 10,10 10,10 10,10 10,10 10,10 10,10 10,10 10,10 10,10 10,10 10,10 10,10 10,10 10,10 10,10 10,10 10,10 10,10 10,10 10,10 10,10 10,10 10,2550 2190,0 670,10 10,10 10,10 10,10 10,10 10,10 10,10 10,10 10,10 10,10 10,10 10,10 10,10 10,10 10,10 10,10 10,10 10,10 10,10 10,10 10,10 10,10 10,10 10,10 10,10 10,10 10,10 10,10 10,10 10,10 10,10 10,10 10,10 2550,1940 0,170 80,0 900,0 900,30 10,170 0,20 170,10 30,170 10,2550 1960,0 290,0 0,10 40,30 10,10 0,0 0,0 0,0 0,0 0,0 70,0 40,50 60,20 30,80 10,100 2550,1960 0,280 10,0 20,20 30,10 10,0 0,0 0,0 0,0 0,0 0,50 60,0 40,20 30,70 10,80 2550,2180 0,120 30,10 0,20 160,30 160,0 0,10 2490,2550 0,1450 720,1670 1550,2470 2340,1170 1070,750 2190,530 1240,1950 2160,2020 870,1550 860,2210 2310,1580 1690,200 1380,760 1780,1980 720,1490 410,1310 30,1750 2310,210 2310,1720 150,1990 440,1060 1160,760 2120,870 1520,1060 2240,780 1060,2130 1770,720 " style="stroke:#1f2fff;fill:none;stroke-width:1" />
	<polyline points="1670,1460 1330,400 1440,2190 840,1410 130,920 2490,1770 150,490 1770,1400 290,180 1170,1130 70,1240 1690,400 1060,1090 1160,2290 1660,600 1130,2030 1260,2530 870,1980 2450,780 1380,1240 2290,200 1250,2310 1220,1450 1950,1400 2020,1040 1940,180 2140,980 1450,460 990,370 1030,1060 1940,2410 1930,660 270,2440 1120,2510 1780,360 1050,1160 70,710 2290,510 70,710 220,2070 1640,600 1990,920 2510,660 1680,2010 1050,2410 2210,1380 1290,1490 940,1400 2120,770 1290,1540 670,1810 570,1010 1420,880 1810,140 1630,2340 280,860 1840,740 2550,0 810,220 2290,1430 890,0 190,270 1850,2460 1450,1830 2480,750 1490,2530 690,350 1820,1560 960,1070 1940,1160 1830,1610 2500,1390 990,2510 2450,1860 710,1650 2420,130 60,600 520,310 650,1730 850,450 2080,1750 280,1200 1120,1860 2390,310 700,2480 800,670 2450,1420 1280,2540 1120,2310 1570,1100 1480,1720 2040,2260 2060,1620 910,1780 710,640 1880,2420 2410,1180 1660,2540 1410,1010 2290,220 340,1280 1640,2430 1710,2060 1690,2210 1260,1860 440,1810 1460,1520 2060,900 2300,2210 1620,200 730,630 1250,2420 1040,2000 2110,2550 0,670 2290,540 1620,1930 1340,260 270,1560 2510,1740 470,850 2030,1420 960,2020 2170,400 1150,180 710,930 240,380 1870,1060 2150,1770 730,1830 1100,1850 1470,30 730,1090 1050,1340 990,2000 1800,260 2040,680 590,430 1170,1930 1330,1960 320,930 700,2020 1100,770 1070,1110 820,410 200,1530 1010,1400 1330,2180 1510,500 1920,360 1720,840 1630,800 970,1030 780,2030 420,860 1170,1060 2160,1640 820,410 200,1380 690,390 1790,2040 2460,1070 1950,120 2520,2430 370,340 1450,720 1640,2550 1960,0 360,160 0,10 40,30 0,10 50,0 30,0 0,0 0,0 0,0 30,10 20,40 50,0 60,170 190,160 200,210 320,330 350,510 640,2550 2180,0 80,10 10,0 10,50 20,2450 700,420 2260,70 70,160 1650,1940 660,480 1770,700 1690,1560 2310,2130 190,1840 1930,990 30,2200 1350,1730 2190,770 1040,2450 1870,1600 1000,1540 2030,1220 2250,430 340,2020 2010,800 280,280 1150,1210 2440,270 500,210 600,2010 1060,1980 2110,2350 1710,340 1940,2140 1230,2100 1500,2210 2010,340 440,1600 990,1600 330,80 2460,1680 1780,1240 630,180 1700,1150 2090,1370 2130,1720 1370,2380 150,380 710,1940 870,860 860,2510 1880,1670 2140,390 2050,20 650,2090 980,220 1050,2330 1950,540 2340,1410 1610,990 1450,740 2150,1410 280,2110 1410,880 " style="stroke:#2ecfff;fill:none;stroke-width:1" />
	<polyline points="2360,100 1020,1750 150,2060 2510,1460 500,1250 1330,530 650,1080 2460,110 1390,730 2190,1570 1520,2440 1860,1660 1420,2350 810,1450 950,300 1700,750 1730,2340 1540,2310 70,360 90,250 340,2010 1910,2030 1290,2050 750,2510 880,1000 120,1730 640,2220 1220,1090 530,1300 770,1110 80,1400 880,1810 1700,1270 1150,1190 860,2500 1530,1410 1320,2510 350,2200 1260,190 20,1850 1690,730 1070,110 990,290 1920,1530 1600,940 2520,1220 2350,1230 270,1050 360,1540 2500,1360 960,1880 2170,70 960,80 2130,800 2330,1570 970,560 1830,500 1070,210 250,340 2050,2530 1260,130 1200,1800 2100,1240 1020,1790 190,1720 980,490 2540,20 1600,1810 2370,1570 2380,2110 2350,850 2220,260 1540,170 1080,910 270,1730 1500,1380 1890,380 2020,1800 1120,960 870,2030 500,1480 1840,1590 1520,390 2290,210 2190,1540 2330,1440 50,370 1990,1120 2160,2460 880,750 270,280 940,2280 100,410 830,160 1980,1390 930,220 2340,2000 1460,740 2290,2340 2500,530 2200,1930 250,810 960,2190 170,1970 1220,730 1480,1820 760,1340 490,640 1470,840 400,1500 590,920 1020,450 1410,2170 1010,1850 2390,2390 2130,230 1520,510 1850,1420 1090,2440 1650,2010 910,280 1370,810 200,2160 2260,2260 1850,870 2520,310 2550,1960 0,680 170,0 20,20 10,20 40,40 30,30 70,60 150,0 0,0 0,10 20,30 40,170 50,180 0,60 190,330 200,340 490,650 350,500 810,160 360,1130 70,210 320,510 660,970 2400,220 520,670 820,840 1290,370 480,680 830,980 1140,1300 1450,1460 1470,1610 1620,1630 1650,2090 2550,2180 0,80 10,30 10,10 630,10 2510,900 800,560 1070,280 770,1680 650,950 60,1210 2260,1320 490,1940 2450,280 380,2270 1400,2240 1100,350 390,310 780,330 2120,1710 780,1130 130,1360 1010,1990 1680,1420 840,1080 1260,330 730,350 1330,1520 300,10 70,2110 2440,730 1990,180 2070,1430 1260,370 1790,1280 730,320 10,2200 1460,1120 480,610 2480,1890 2050,1860 450,220 110,610 2320,2470 220,810 1320,2040 1590,570 1920,430 1760,300 1600,2500 2440,2470 1760,2390 2290,2360 1130,630 510,2320 540,1820 510,750 1250,1860 690,1380 750,940 1340,1780 1610,1190 130,1730 2410,1070 2140,110 1300,610 670,540 610,2000 2260,1820 1650,1630 1060,1140 1730,1220 2180,1620 2050,990 1850,1380 1810,2320 170,2210 1280,50 1520,340 2180,1300 430,820 1330,800 750,2440 2310,2200 1600,1000 1760,2250 1020,1890 710,1840 1180,490 " style="stroke:#3e6fff;fill:none;stroke-width:1" />
	<polyline points="150,830 1530,1090 870,320 1030,1870 1990,330 1070,1810 1150,2290 10,1620 1500,2120 490,2490 1570,2270 30,1910 200,530 880,2360 2250,150 1950,1550 1040,1120 1550,1310 1720,1370 2540,1140 1880,1710 2280,1540 440,1450 2300,950 500,2290 1220,1690 270,290 1880,350 1340,2530 90,2290 1980,1200 2120,1210 1340,1330 470,190 2140,1510 300,250 550,620 70,1480 1830,1270 1340,270 2290,2340 120,1220 180,60 550,1190 2480,1140 2360,1500 770,1190 1540,220 730,1950 620,1590 1650,1280 2300,240 1930,410 530,1660 940,2330 1300,1120 810,750 50,290 700,270 1350,1530 1510,1640 1190,660 430,2330 2180,540 1590,160 1770,2110 460,1230 510,900 1810,320 1610,20 1900,1150 1500,1500 860,190 1500,240 0,1490 510,2250 1510,2160 2500,550 510,1140 2420,540 2140,1550 690,980 140,110 1170,1650 1590,2550 0,560 1660,1920 2540,590 1430,2270 1970,750 2440,450 1090,1500 1640,1700 2300,630 500,2030 1660,2210 910,1940 290,1920 1690,2050 890,700 800,2250 1360,1960 1170,2170 1760,790 2030,2230 1320,2130 900,240 900,1050 1770,1020 210,860 610,1220 2020,1150 1490,250 2170,600 360,1500 1330,2430 2290,2210 1850,1480 540,1220 1570,170 2190,1360 2200,780 550,1980 1610,370 1110,1880 1520,1070 2010,1480 1550,2350 1110,790 1480,1700 1080,1810 250,1080 720,1720 1700,360 360,1950 1010,100 740,1470 1130,1650 1060,620 330,1220 1100,2340 2110,420 1340,2200 1600,1700 2070,170 2360,1790 1620,1580 2350,2200 200,1540 350,2300 1340,1010 1000,1110 460,1980 1170,590 1340,1260 2010,910 30,1410 1100,2490 1670,850 1530,630 930,330 160,1950 2330,1580 1630,2310 1840,70 1770,420 1610,1560 410,350 1230,0 1530,2030 140,410 840,2520 2530,1690 630,840 1500,2110 520,2330 510,550 1180,2510 2210,1940 1140,850 1390,970 1380,430 470,1140 840,490 320,2450 250,1640 680,1440 2350,1220 2090,2110 2500,520 520,2480 1630,1550 810,1760 1350,1950 1920,780 2020,2450 1070,1990 2170,2370 2180,970 2180,420 1760,1430 1920,1850 270,190 1900,720 2130,2490 1500,1560 540,850 1120,2200 1970,1700 2000,740 1640,2460 980,1230 810,230 2010,50 520,1570 300,500 1770,2440 1480,2460 730,2310 420,1740 2020,2190 750,2400 2420,1260 800,470 640,150 2420,1260 2090,1700 1670,1220 680,2270 700,1650 1420,1960 20,1800 2220,1770 1450,780 90,240 2200,910 1900,510 1970,1090 550,940 2400,950 1570,1010 2090,2380 860,1460 1880,2060 1460,2440 670,860 2130,1610 170,1330 620,380 400,680 " style="stroke:#4e0fff;fill:none;stroke-width:1" />
	<polyline points="1350,1970 640,500 660,1380 2420,640 2040,2020 1990,1650 340,1680 860,2290 1900,1040 1230,500 1950,940 2120,2090 1880,2460 0,900 900,1360 2420,1950 1270,250 20,1650 2450,2180 1840,1590 2020,2030 200,2210 520,1440 500,1780 240,2100 650,440 180,330 210,2220 540,1320 1520,1060 880,1550 100,150 1740,1550 1680,1400 1400,960 300,2080 2010,2300 1420,840 70,1660 800,1760 140,340 430,1860 570,1540 550,1420 2200,1060 850,1390 740,2300 210,2390 1820,2120 640,2480 2340,1310 30,2040 450,690 270,2030 310,2020 1340,1970 1160,1520 2280,2030 1970,890 860,680 870,860 120,1740 1610,1490 1350,1610 860,250 40,310 1660,620 1590,1010 1310,1990 570,2220 490,510 2240,2550 0,550 1680,2360 1310,270 1310,2050 410,1990 730,1990 2450,1360 160,1800 1030,2460 910,310 2140,120 1860,160 1470,780 2110,1060 410,1200 2040,1150 1200,1370 1660,50 780,2290 880,1450 1860,1820 580,1850 810,2220 960,1610 1290,820 480,2350 1830,1110 1550,1410 790,850 1340,1510 460,1070 280,1930 1100,520 1790,1680 2430,10 530,2320 840,1440 2290,1880 520,1780 530,1250 620,0 1630,130 2110,100 130,1530 540,2370 2340,280 1400,2380 1990,260 1170,450 510,1440 520,1130 1700,1060 720,1820 2450,2510 2020,120 2060,1180 1530,1540 1020,930 2220,180 1770,1930 160,850 1740,480 1740,800 0,1180 2310,70 2250,700 380,2520 1650,1070 2390,540 2480,1500 1560,490 1030,1800 930,180 2270,310 700,1020 1250,1960 2530,740 1480,2530 1920,1130 2030,280 2510,870 890,1580 290,580 2280,940 230,810 1520,730 2100,2190 2220,1810 1310,260 2390,1010 1410,1370 2200,1460 2360,2200 1940,380 2000,1010 710,330 2010,240 2270,940 1640,1540 60,1870 710,870 1730,100 260,900 1410,1750 1880,870 2160,1660 560,2450 560,2120 2020,1460 1980,1650 720,700 1890,120 1110,190 990,310 1230,740 2110,2520 2350,1580 290,180 1980,2280 820,120 580,1490 1140,800 2470,420 440,1960 1290,2240 1440,990 2120,1880 990,390 2340,1810 2120,1260 2380,410 2160,1050 1060,250 1420,1190 1810,1040 2390,460 1230,2380 1810,1660 2000,340 1760,730 2360,870 1720,1370 930,1120 630,1010 1590,2230 1180,2370 210,2410 10,1350 2510,520 2100,660 630,1160 910,1860 1490,1920 620,2240 860,1460 280,280 2310,2350 2230,1910 2170,990 2230,2480 2470,2270 1570,90 2550,0 90,1030 2510,1100 1460,1910 1300,2030 2110,890 1270,2370 30,630 2340,1300 1250,560 1460,1770 1770,700 100,1450 480,1370 1670,2090 440,1960 " style="stroke:#5dafff;fill:none;stroke-width:1" />
	<polyline points="1430,2360 1430,580 2150,820 1960,150 1630,280 1560,1190 2270,1550 1070,1200 770,950 1460,1800 2490,100 1810,1200 470,1140 2360,180 2460,2480 1080,2400 1890,2440 1430,420 1250,1520 2390,1920 630,2230 1990,2290 450,2300 600,2040 1680,2290 1860,430 1650,2120 480,460 780,2230 520,2460 2500,1400 70,1660 2260,1920 60,620 1840,840 2070,1830 40,2470 2270,750 500,1740 1730,1640 520,250 2350,130 870,780 2330,2270 2150,1130 1830,160 350,2400 420,880 550,2500 50,1790 2190,1410 810,1070 530,720 1410,1840 1320,2010 290,2020 140,1600 2370,2420 2030,2270 330,840 1120,890 880,130 1650,1780 2160,1930 1000,2200 1610,1510 1180,1200 2290,2370 980,610 1020,1570 110,480 850,530 340,1380 2320,1730 280,590 2500,1280 420,2330 2360,2160 120,210 1230,320 1470,1030 1670,2440 1270,1910 10,1110 1990,1650 1950,1020 2030,1980 2110,690 50,1730 740,170 100,1490 830,2110 1500,1970 210,330 1190,1210 1120,1400 2510,1360 2470,250 2470,2270 1510,140 970,1440 2530,770 510,2550 0,1730 1630,2460 880,300 1880,1150 1810,860 990,1070 1040,2530 1090,1160 1760,1630 40,2450 1080,690 2290,880 1980,590 2240,360 740,730 2530,1410 2310,2210 1480,290 420,2020 2070,710 770,1780 1640,1490 940,1650 710,390 2170,1080 1080,1500 190,1440 790,1860 1930,160 2460,2030 2500,2460 2270,2420 1490,1600 2480,1690 1160,2210 910,1720 2130,970 1380,720 1060,2210 1820,1450 1530,1240 20,110 430,530 770,640 1980,250 1190,370 1210,760 1450,2010 2300,270 820,1140 2220,1990 600,2190 2020,990 1530,1040 2120,1580 1800,2410 130,780 1640,1270 1190,1780 700,320 1810,280 1380,1660 720,1010 2170,1880 1720,820 1490,180 700,2350 1910,1640 2210,1920 1010,460 250,570 590,1530 2180,2010 1700,2180 610,1320 1170,40 2450,110 1920,1070 160,80 250,910 20,940 1530,2060 1140,200 1450,380 510,2280 240,320 1140,2070 390,1570 60,830 2040,600 2030,360 210,1330 160,2390 860,1680 1450,1000 170,2000 650,790 170,510 1750,1490 2300,2180 740,2150 1340,450 2480,470 1870,1130 1510,1060 1670,2310 2030,2520 1960,1460 850,780 1540,110 1510,760 580,1160 420,620 520,430 440,460 1450,2010 1030,1070 2550,0 1470,1920 2100,2340 1750,1490 2040,1020 100,2220 1620,2210 1260,520 1890,540 460,950 1690,780 1740,2300 1460,400 360,1850 1100,730 2140,220 1950,2040 2510,1490 160,1330 460,350 2420,780 850,550 550,1260 1460,1680 2380,2160 2270,820 870,1060 1540,930 490,2220 1230,1080 " style="stroke:#6d4fff;fill:none;stroke-width:1" />
	<polyline points="2420,2000 1310,1870 760,1830 2290,420 240,1250 1000,1430 2380,2390 1830,2120 1010,910 270,990 1140,520 560,1300 1970,430 470,2000 2140,930 800,1250 220,1700 1650,370 2520,1150 2250,1830 1270,1810 1980,560 1530,1140 560,2300 740,380 1060,2210 1000,250 1220,2190 1520,2270 1770,480 480,1960 2030,1450 2200,120 50,1190 2180,550 1800,1040 2410,1750 2070,1980 1490,500 1050,1830 390,2110 450,1000 820,1850 1850,1600 1440,2490 1180,1690 980,700 140,910 1080,1490 1000,980 80,2210 1860,530 1170,1020 590,2270 2180,360 1400,890 1340,1220 220,1300 520,1430 110,1980 1190,1600 1200,1720 680,2350 1800,760 350,620 870,670 1450,2130 1430,2500 550,2420 1590,350 700,2380 2230,2020 1900,790 1380,1060 1450,1980 460,1050 1230,1000 900,2360 680,1430 130,930 2210,1450 2340,2160 2480,1730 850,160 1440,2220 190,810 20,1860 990,1000 870,2170 1250,230 1570,2490 1410,230 1110,930 1010,1990 1100,1690 1690,700 700,2550 0,1530 50,1950 950,2510 2170,1280 2270,1110 490,2430 770,1330 2010,1790 1190,1050 2420,1830 1920,1200 330,360 1220,1720 1120,510 2330,1170 1520,990 60,750 220,1650 1510,250 430,740 1020,1920 2270,1490 1210,780 450,100 620,1720 1650,1020 1910,340 1440,2420 130,2040 1440,1710 1440,2420 360,1100 2550,0 180,890 370,1120 300,1970 1530,0 1460,1950 420,1210 990,1380 560,970 1390,1520 1170,470 30,800 840,1750 2300,1910 1270,2240 1930,240 2380,2000 1730,1440 2430,480 1930,2420 420,2380 2390,2190 1760,980 1670,430 1420,520 1320,1590 800,2120 690,2010 240,790 2240,860 400,1600 1140,1700 1690,620 1620,2410 1360,960 960,1450 1760,850 800,70 940,700 1750,1860 250,420 1950,200 1330,650 920,100 210,1500 1880,160 1940,1910 440,810 1620,20 1250,780 2080,10 990,2370 1470,2340 1260,1640 2530,1320 1000,990 1370,2260 2450,2370 1990,500 2420,2320 0,1860 20,1760 230,2340 690,420 150,610 570,1910 1030,2080 190,2100 2460,810 1310,1330 2480,1060 550,1240 430,1480 1110,2070 860,400 1690,1070 1050,2110 820,2050 2240,450 70,850 730,210 600,1610 1700,910 180,1160 1460,850 590,2130 1700,750 360,1100 1680,660 1980,2100 1710,1360 1200,1700 1460,2010 170,1050 550,480 2340,560 1370,1640 1430,1670 430,680 1840,10 1650,1430 0,60 440,240 1400,420 1100,770 1730,1770 730,320 620,1510 740,710 2340,730 780,1710 2010,2530 1190,1750 270,630 2520,690 730,2550 0,1750 90,0 810,2160 50,30 2320,0 " style="stroke:#7cefff;fill:none;stroke-width:1" />
	<polyline points="280,1060 920,1970 780,1370 2400,2450 490,1260 2510,1180 1420,80 780,2280 860,560 10,1650 1120,1180 1700,1000 2470,2430 150,1170 440,1670 280,870 1750,1150 820,1850 350,520 1390,990 800,1760 1670,1960 2170,2060 420,2080 1700,620 1120,310 1780,1720 1060,0 2340,730 1430,1010 1380,370 2350,1270 490,2290 2210,340 580,1760 1940,850 910,1650 160,1110 150,1890 1180,1880 1750,390 2350,1750 740,150 1130,360 2550,0 440,640 2490,1630 1310,2120 2380,1500 680,840 930,1630 2370,1160 2200,560 1580,1840 960,2020 1920,500 1760,320 1300,500 80,620 1600,1430 790,2540 2410,1690 1040,430 280,1150 2010,30 640,1810 1380,1510 1770,780 2340,1370 400,1780 390,1520 1500,140 240,340 1740,550 190,1800 1760,80 1690,280 1440,1600 1990,90 360,200 1940,2480 1070,1540 1740,1340 890,670 690,940 790,1390 770,1450 1890,1000 740,1540 1760,940 1460,570 2390,2400 1090,540 1980,2210 1460,10 2430,2330 510,2180 1770,630 730,1810 1700,2150 1190,1970 410,680 2520,2120 2090,740 240,10 1810,2040 2410,900 1060,1970 800,2470 1000,170 2520,650 2170,930 1250,1200 2120,2320 2350,510 2220,1580 1560,1820 2450,1250 710,1650 2090,770 1490,1050 100,1160 900,860 650,460 2110,440 60,860 950,1350 420,1290 410,2190 1770,1930 140,2190 710,850 1160,1900 750,1800 2270,2390 330,520 2180,2050 2210,2240 1280,1720 1830,370 2490,1340 2170,2310 2430,1980 1240,1640 1610,1090 2100,1990 600,450 1350,1750 270,2470 930,390 1500,2260 1640,1890 380,170 1520,860 770,2350 260,60 2050,1300 1670,490 2050,1170 2200,1500 1540,690 2460,1430 1800,420 2490,1470 1070,490 670,280 1130,2370 310,1990 2410,2520 1270,1870 2440,100 1340,2450 2260,1060 1690,340 1860,580 1710,1630 1690,870 700,270 1490,1490 1340,250 880,300 1960,170 2160,1310 1560,1420 360,2290 1860,1310 1810,870 1810,710 1850,590 1060,2060 2220,280 1030,590 1480,820 1550,1730 680,430 1000,2380 950,130 1300,1140 1250,730 2260,1670 430,860 1690,1140 430,1710 440,1750 360,660 800,1710 2250,1800 2500,2340 1220,1710 1810,1390 1540,1160 1070,2010 380,70 2020,250 2400,150 1240,1120 430,1260 2380,180 1910,100 1290,1270 1960,310 1760,1220 1260,1510 2550,1960 0,620 170,0 20,10 20,40 40,30 50,40 80,50 50,0 0,0 0,10 20,30 40,170 0,180 330,490 50,190 340,650 660,810 970,350 500,820 1130,1450 160,200 510,1290 60,320 520,1140 1300,1460 1610,1770 " style="stroke:#8c8fff;fill:none;stroke-width:1" />
	<polyline points="480,830 980,990 1620,670 1150,1470 1640,1790 2550,2180 0,80 10,20 10,10 630,10 2510,550 1940,640 2050,1330 1630,2440 1960,1240 540,890 1110,2030 1370,2280 1820,1670 340,1790 880,1220 2160,1050 2290,1370 1200,1000 2090,1260 360,500 370,2460 2040,1400 1910,2200 120,610 510,460 100,1450 1910,2340 1700,1500 540,240 1300,1510 160,2090 2220,2140 310,650 1360,560 370,840 1280,1450 130,1720 1650,1720 2280,430 1160,1400 1990,1670 1130,1660 2170,1280 300,1870 940,460 290,830 80,960 1880,1290 1560,0 2030,350 830,1810 2360,1100 580,940 2530,2550 0,600 520,210 160,20 2370,790 1490,150 1880,2440 2420,600 1270,470 1950,1150 160,620 870,1400 1430,760 730,770 770,830 1660,800 280,2500 360,500 2550,0 110,450 1690,2300 1820,1640 1350,720 930,1800 850,1230 2260,1830 1340,520 870,970 2150,290 2420,2300 2020,840 1630,1240 180,1610 2340,1410 2530,140 1340,1990 350,560 230,1960 1450,1480 620,1590 1100,2480 1650,1310 1080,810 2400,1530 2280,880 1560,400 110,330 2080,1590 100,1430 250,930 2420,2460 220,1850 1850,20 2150,1160 2050,40 200,1160 50,180 2170,1650 540,2060 2180,220 800,1240 680,2350 1470,770 660,460 1720,520 1080,1920 1630,2240 100,1690 910,1510 240,720 2470,20 560,1470 2390,180 1780,2490 1040,100 2160,2490 540,770 610,480 1880,270 1370,170 1130,290 1120,2440 2000,1450 2550,0 1950,1560 620,1500 1970,690 120,2410 1160,2070 290,1750 2250,1700 1280,1920 950,2290 420,1110 2430,1050 200,1240 2410,390 140,180 560,680 1880,780 720,280 1850,790 1590,1370 360,260 560,2390 1070,30 1110,1190 620,380 1350,1510 2100,1990 500,150 990,1580 680,1790 710,2540 1970,820 20,1150 660,2140 1860,160 730,750 70,1330 1790,350 710,1420 390,650 2020,370 1490,720 1410,1370 250,780 1660,570 70,1890 270,170 1610,2200 500,560 2100,680 330,1340 1850,1300 1860,2290 540,2510 320,760 2050,1420 170,680 390,1530 670,1260 260,120 2420,1110 2380,1390 1050,1660 1600,190 960,790 1320,280 2210,1770 350,2530 2180,330 970,2370 310,1660 490,970 2100,0 2220,1950 780,1280 1080,1630 2210,360 1460,1890 50,1630 280,550 1350,100 1400,2450 530,440 2010,770 270,1230 710,290 820,750 350,1230 1770,680 150,1910 510,1590 2010,710 830,970 340,160 710,1490 2010,1600 1380,2230 1780,820 1440,1810 40,1180 1060,2020 1820,2120 510,130 760,1070 1680,40 1160,2250 430,560 920,460 " style="stroke:#9c2fff;fill:none;stroke-width:1" />
	<polyline points="740,1980 1850,2060 1330,2050 770,750 1850,2490 1890,1920 2200,1240 540,1940 1130,260 250,1590 2380,1980 850,920 2270,680 1580,2100 2100,1890 2520,370 2020,140 910,550 1560,1360 2550,0 1880,1670 920,1130 940,140 1390,270 2030,100 480,1410 530,1580 1590,1190 1670,2550 0,1220 1560,2200 2220,610 650,1160 2040,690 1360,570 1380,2290 1450,1020 1400,2000 1740,280 1030,1540 360,2340 1820,2130 840,1670 2040,2550 0,1520 1620,2040 1410,2390 60,30 1640,1810 2370,600 100,2350 360,460 650,10 810,680 1350,1880 470,2510 520,2300 2310,670 40,1400 1680,2190 1830,420 860,1430 640,1520 1720,1320 1630,480 340,2040 1640,1300 590,2200 290,690 1900,2020 530,2190 280,60 160,1760 250,590 1880,1280 190,2280 200,1160 480,2440 2040,890 880,1080 710,2000 1310,520 1050,440 2040,1850 720,1040 1500,400 2120,1310 2100,2040 2280,280 1530,1080 780,1970 1520,880 2380,130 2510,980 640,2090 2130,2100 2080,1920 2200,1840 2480,1200 120,2380 1890,2340 440,300 1210,780 2470,570 1860,60 1070,2160 450,1770 200,850 600,1060 1720,1930 110,210 1330,730 1030,1180 1850,100 470,1710 1830,1960 2360,1180 230,1850 620,1510 330,630 690,1200 1120,760 1740,2110 1870,2470 1240,2250 1170,2440 800,1820 310,350 1550,2310 1420,470 1920,1640 2250,2140 1540,390 500,2110 1470,1070 1450,2150 250,2420 1230,1040 1110,2170 1330,1750 1740,1300 2160,2250 2110,1830 160,1610 1580,1420 710,600 2320,340 2460,1140 920,1340 1060,1020 2330,420 1990,1840 1290,2160 550,1270 1000,1000 1430,980 1120,2150 1420,2050 2270,1660 1470,810 2230,1480 1960,1710 1740,1870 890,1800 300,1780 280,860 660,180 1240,1580 170,430 830,300 2140,1340 1730,750 690,2430 2290,1500 1440,2520 1940,2500 990,1390 1670,1800 2300,1270 1570,260 720,790 1550,2190 440,1660 2210,1430 530,1000 1840,2500 1250,1480 1250,1770 1930,0 2280,820 1420,1980 570,1110 2490,780 450,2530 2070,2150 160,740 350,1680 1210,1560 1020,170 2150,700 2360,1890 2170,800 2000,1090 2490,1290 1080,670 330,1590 2390,2450 0,160 1010,2310 1910,2430 1820,1070 950,2080 280,1260 1370,40 2510,1810 730,2110 630,530 670,1240 860,1790 910,2360 2270,10 150,130 1710,2070 1070,1140 1740,470 2410,920 1010,1830 1730,2410 30,720 1740,1210 1100,800 1780,1780 1460,90 230,830 1840,540 2200,310 440,1130 100,860 1660,2300 70,1470 1540,2110 2100,450 670,530 1720,650 1460,1010 540,620 1030,770 2550,0 2130,1380 2000,1400 " style="stroke:#abcfff;fill:none;stroke-width:1" />
	<polyline points="2170,640 330,890 1620,1630 1240,1980 2540,2420 1720,2550 0,2200 120,1130 2090,1050 200,1270 2230,310 2510,1170 560,560 1630,1090 1770,1920 1650,130 760,1620 2500,1980 1970,630 1180,590 2430,460 1270,1210 1370,30 2060,1950 1780,1560 720,450 520,2350 1830,490 820,1610 600,2060 800,670 1430,770 110,1830 2400,2500 2270,1310 770,2050 1670,1690 1600,1760 1050,770 2340,410 1500,2460 2300,560 660,1780 1950,1270 550,1420 1970,710 1960,1520 2250,1240 780,780 230,820 2050,1510 2170,1770 2030,440 710,670 1910,2440 350,90 2500,690 1940,2170 510,520 2300,610 470,1490 1450,1370 1910,1510 720,550 1990,200 2260,2420 1130,1180 740,260 80,2200 1630,1760 1900,1570 820,310 950,1330 640,2150 2110,1140 1160,1970 1090,120 280,610 2250,810 1530,1570 330,2050 810,330 1910,450 2280,2050 1680,1390 650,1600 350,1500 720,1910 1130,1610 860,1970 1170,810 1750,1460 870,800 1680,890 320,1670 720,1390 1420,1520 2080,460 1600,1550 1020,1830 440,940 1950,760 2150,2370 1370,100 1530,1660 1270,2500 1050,340 1600,590 40,900 880,2500 2550,0 1350,1730 1910,1480 2500,990 1400,730 1530,2080 290,1960 420,2040 1240,2180 980,2130 70,2550 0,1810 1910,440 180,1130 760,2490 910,280 140,1720 710,550 450,1410 1500,910 10,2330 340,2540 250,1820 2150,1850 320,950 1670,490 120,2220 2380,240 250,990 710,1430 2410,960 570,1440 1110,1530 1240,730 2540,1710 2500,1310 1560,1060 60,860 1850,1420 760,1330 390,1330 1380,1280 1920,1300 150,840 780,530 2000,780 2240,1430 30,1200 1340,1870 1340,800 1790,1120 2060,380 2010,370 930,2240 1690,50 1210,1460 320,2320 1560,20 470,2060 1400,880 2300,1090 1850,1450 1060,1190 410,1760 1930,2250 1240,130 1420,960 2090,1680 2480,690 910,10 2440,1450 570,1520 530,1560 430,1330 1980,1940 1530,990 2050,1070 170,300 1230,1830 1640,1490 180,10 410,830 2400,1980 1910,1980 60,560 1430,180 1460,1770 2030,1850 1780,1410 210,700 1380,200 1080,20 1410,1480 1200,870 2340,730 370,1410 580,1150 1000,2300 1830,2250 1960,1110 2510,2070 2250,0 1570,520 2210,1870 1080,260 2170,1340 430,1000 1420,560 890,710 740,1840 1120,780 1830,900 1170,570 2340,300 2300,2500 1810,2040 1040,300 2050,1580 1080,1310 1080,1130 100,1310 520,1460 720,1190 1180,1020 1830,970 1150,1760 2440,270 150,1770 770,1410 2410,750 620,2230 1500,560 870,190 190,1700 1630,1810 1670,810 2550,0 1440,1240 660,2540 630,1380 " style="stroke:#bb6fff;fill:none;stroke-width:1" />
	<polyline points="2460,1910 1880,790 1420,1580 700,1400 2000,940 60,20 760,1900 2200,1010 570,110 1110,1050 350,420 260,2140 2020,1210 1290,80 470,1690 100,1220 2410,360 2000,1720 20,2180 2490,650 1120,1730 1570,670 1570,1080 1340,2300 2240,110 1190,540 550,230 590,2270 2390,710 2270,1110 1690,1950 840,950 1850,390 2500,2250 1050,2280 1510,1700 910,1970 310,1750 1900,2210 2440,940 2180,1200 1430,1100 1600,260 2140,1960 2430,1990 280,1180 290,490 470,720 110,1690 1140,1110 1040,2270 270,1870 1850,2540 1090,730 600,1720 2070,550 240,2260 250,1390 710,1130 1520,2190 1530,1490 1740,1680 1700,1220 410,2120 2360,850 610,2330 240,1040 2430,1060 520,640 760,1750 1570,1900 2160,2280 400,1250 490,770 860,650 40,490 40,880 1300,550 310,440 820,1130 1130,460 680,1680 120,2070 1600,730 1620,2100 960,790 2110,550 2140,2150 370,1570 1000,990 1290,2370 1180,1060 1220,1440 550,360 2280,1440 310,440 2090,1060 2360,590 1500,1400 950,1830 1650,820 2420,980 2300,260 1190,1400 60,800 880,2040 100,2350 2160,330 800,2500 2550,0 780,2480 1300,1900 1540,560 210,2130 340,1360 1460,1990 490,1490 760,1850 1160,270 1490,1900 1330,790 790,1230 2530,1070 560,2260 880,1360 2060,1150 2490,1720 1220,1270 2010,1810 2120,30 2380,1760 1860,1560 870,2410 1470,380 1770,2210 910,370 1370,590 710,1130 2140,1440 400,2090 30,1200 1640,550 1490,1500 2020,880 110,2300 1540,980 2280,1280 1270,850 920,1740 2160,1380 1720,1690 60,2280 170,1770 2390,1270 790,920 710,1970 1640,2410 2280,1470 2130,2150 1680,2520 2280,920 1780,1260 1210,1770 390,230 1050,350 490,2160 0,720 620,2520 1730,1830 1440,1210 240,150 2390,1340 1720,2450 1960,1490 1190,2390 1350,1490 1590,2520 350,1910 2350,1270 2550,1960 0,640 160,0 20,10 30,10 50,50 30,70 90,90 0,0 0,0 0,10 20,30 40,170 180,330 0,50 190,340 490,200 350,500 650,970 510,660 810,160 210,320 360,820 1130,1450 60,670 680,830 990,1140 1290,1460 1770,480 520,640 980,1300 1610,1620 1630,1800 2550,2180 0,80 10,10 0,60 630,20 2500,390 1350,270 2010,1090 780,100 900,2230 1250,1340 1550,1190 1450,720 1510,2330 1540,500 2550,0 810,2530 1420,1310 1080,1600 1620,1480 1680,120 1140,970 1300,1400 1220,1340 1020,1760 790,1900 660,1630 1660,1860 1410,1530 1200,1160 420,920 0,2090 2050,1880 550,700 770,1090 710,1170 530,860 870,2480 " style="stroke:#cb0fff;fill:none;stroke-width:1" />
	<polyline points="890,1110 2400,2170 1670,1690 2210,2050 280,260 90,420 410,370 560,450 2000,850 2050,2330 1660,1500 1580,500 1960,1280 1880,720 2360,2210 0,590 910,160 280,2500 360,180 2550,0 1650,1480 450,520 2220,1000 1350,720 360,1250 20,1900 1970,1350 600,1190 1990,430 210,400 2230,980 840,600 2090,1910 1610,2080 2160,2240 2040,50 2540,1480 20,240 1780,530 130,1380 150,630 2230,430 2150,150 950,1870 2370,1660 730,90 840,2220 590,2060 2340,380 1180,250 2110,820 2230,700 2290,2520 2350,1280 880,2270 1260,310 650,1050 440,360 2190,1320 2100,2330 2090,1050 2250,940 2120,2290 1090,1070 440,490 1420,20 1410,780 1500,1390 670,2310 1250,1100 350,2220 660,2540 920,560 2260,2550 0,1710 1800,150 1940,2190 240,2340 170,1510 610,100 860,830 530,410 1500,1960 480,2390 1440,2170 1810,0 2430,2040 50,1920 2350,1660 1940,520 1880,500 180,590 1690,1430 1450,620 400,1640 220,180 150,590 880,490 300,140 380,2160 1790,1000 1310,1850 2260,740 1500,1040 2540,200 2450,1130 1300,2170 640,2460 1860,160 780,220 2260,660 1930,1450 1630,2190 530,820 350,980 690,1420 1660,390 290,990 990,2390 1250,1680 2200,1050 360,1000 480,2150 320,1910 400,130 2360,2080 1130,360 2530,1970 2420,2110 810,1450 1780,1460 600,320 1500,2420 2170,560 1220,1110 450,2270 310,330 1760,2500 1650,230 690,1990 270,1680 1210,650 2480,2160 370,1760 850,870 1010,2180 740,1700 1830,1200 2320,2260 970,1970 1440,120 1650,1580 870,2400 1930,0 620,570 2280,2520 200,1150 550,1710 2000,1840 1100,770 2170,160 1880,1820 1490,1050 1130,940 1830,2220 270,2010 1930,1150 370,1880 1130,660 240,1600 350,600 460,540 1970,1910 420,1050 690,650 2290,1190 1420,1590 1230,860 470,1500 1340,1740 580,1290 270,110 1420,1820 1830,1570 1820,2490 1820,290 2390,710 890,280 2080,1640 1450,1910 1820,2210 2100,1020 880,1180 1210,920 1750,2130 1670,2100 2370,1970 890,1300 1340,940 2410,90 560,2010 440,490 1860,1970 220,1810 520,1030 890,410 470,1110 1720,820 1550,1550 1970,1680 1030,1430 380,660 1640,480 1180,660 1460,1710 1370,0 1460,1200 990,2300 2480,860 2090,1550 300,1910 1720,930 290,270 1980,240 110,1690 1230,2170 2240,1150 1120,20 10,330 2110,400 360,2540 2350,570 1850,2080 1920,2380 1770,1910 860,2240 2020,2090 2510,1550 500,1450 980,1640 1300,150 1450,260 170,2420 1940,1670 1640,2450 720,1740 1110,980 1440,1990 1690,1480 310,1280 " style="stroke:#daafff;fill:none;stroke-width:1" />
	<polyline points="2390,670 1170,1840 1910,1920 1310,850 380,120 290,760 810,1970 1740,1560 2360,560 800,2250 1750,1340 460,1500 1070,2420 270,2290 1660,2190 1790,1140 640,2390 790,650 1860,1260 1770,950 840,1300 2020,1750 100,90 2350,1010 440,1210 1200,1320 2180,80 2420,2030 110,1310 1080,1110 1830,2050 1870,1890 1410,380 2240,1600 370,410 960,920 1320,750 100,280 1230,850 660,2320 1020,1690 1590,860 250,2340 1850,170 1270,1050 350,980 2300,1620 710,1820 1780,1130 20,2350 2320,1610 1080,630 1420,910 790,950 740,2260 1620,1420 1560,1990 1980,70 740,1360 860,860 1930,1000 1010,20 2070,160 1470,80 2180,690 1820,470 360,960 1740,1830 2180,1710 1190,2050 350,1180 1540,400 590,1530 1140,330 2220,1330 2190,1340 2090,1850 1890,2160 820,720 2350,340 2230,2440 1180,1580 470,90 2160,490 70,1370 690,550 480,2430 2240,1870 210,1450 530,2420 870,2080 1220,2040 1180,170 1430,80 1530,1690 790,1490 1600,1730 820,2410 150,940 270,520 1670,950 480,1900 1500,180 1260,1860 520,1440 2500,1890 1760,1520 2190,2030 1900,890 620,900 350,2310 2160,2470 1710,150 870,1420 410,1540 490,2520 2230,2150 1050,390 1120,920 690,1880 2250,1180 950,540 880,1400 1980,2230 1960,110 1090,2490 990,890 290,2140 1620,770 2190,2490 670,360 900,2430 1720,1140 1990,1870 1540,910 170,2300 1630,130 710,770 1630,1160 30,540 2220,1810 2260,1180 1830,530 2140,1580 1310,1340 1640,2450 1960,410 980,1630 1650,2170 2370,2310 2420,1110 370,1510 2160,1570 2110,1890 560,2230 120,50 50,670 950,2390 870,100 2010,2510 640,1820 2140,2190 720,410 2280,2250 1790,820 870,20 1170,570 710,2160 2300,1030 910,20 530,1010 940,950 1780,2480 1810,1410 1730,1810 1170,440 1810,290 1650,2480 460,2390 460,240 930,1330 1040,750 1450,1180 2410,1480 2030,1750 1910,2330 1810,610 500,2000 1770,730 520,200 1140,1130 920,490 250,1990 130,910 2350,1420 1830,960 1520,1430 910,1210 1080,1590 1170,710 2540,2020 1750,1500 1440,1830 1850,590 640,2300 2270,1870 1340,1070 2290,330 1900,1570 1010,540 300,2460 630,0 720,1750 1670,970 1020,1860 2040,0 2430,1040 500,1420 810,990 1110,1400 1750,2410 1780,2500 2370,910 690,1930 900,1660 1500,410 2280,1300 1450,1560 700,430 1150,1280 1970,810 690,1960 1970,1770 1050,1440 710,340 1140,1560 1580,0 1820,2150 1060,1700 1060,1680 1010,590 1780,1740 750,2050 20,1550 2070,730 440,1010 1320,830 1950,1580 100,2100 700,1720 " style="stroke:#ea4fff;fill:none;stroke-width:1" />
	<polyline points="2090,2030 270,960 390,1400 1440,740 480,1410 2080,840 1990,1890 2330,1020 1410,1550 160,1380 1790,1730 720,2080 1580,1220 1030,1360 720,1820 1810,1390 120,1630 2020,1920 570,1840 590,1240 2030,1840 40,2130 180,870 960,1490 1490,1010 120,890 690,1170 1470,1780 2110,1630 1150,1720 890,1330 530,510 2030,1340 970,480 80,1770 1020,2100 1380,2010 510,970 730,740 370,1730 1440,2510 570,560 820,1630 1860,670 1170,2530 420,1170 1390,1170 380,1820 1440,840 850,310 2090,1030 2180,1700 1640,2170 1010,1560 830,1940 1770,1800 1390,1120 1280,1340 1190,40 2270,1510 520,1190 1070,130 560,1320 2490,1090 1880,1070 580,690 750,240 720,2230 1620,1970 370,420 60,0 2550,0 1460,750 790,290 2500,300 1000,1900 820,320 490,1310 2120,660 1720,1990 2260,2110 1500,1690 630,1350 260,2230 1950,2290 2250,1770 2290,1540 1920,1220 740,1900 2040,2190 1650,2390 1170,910 2420,1340 960,2050 2250,2180 130,2330 790,1730 850,540 490,2130 320,2300 2390,20 2260,280 1410,460 1490,1130 1680,1770 1990,220 1450,290 700,1460 920,1970 870,140 650,220 690,1130 1390,1490 1200,1570 780,920 340,2270 850,580 280,310 2220,930 1240,650 1490,990 1680,730 560,210 2470,670 520,440 2090,1650 680,2140 2130,1460 880,1370 1370,430 110,10 970,830 640,1230 750,2230 410,1040 160,2340 1110,2170 1020,1420 2550,0 1550,2060 1850,630 2250,530 320,1550 2400,70 980,1010 2240,800 410,280 1930,2480 1690,600 1600,300 1520,2020 230,1210 840,30 2280,1760 2110,690 130,2520 850,1440 1750,540 1940,80 210,1610 1600,1410 1310,420 540,340 730,2210 650,680 1500,1010 780,680 880,2080 1480,1670 1660,1420 2410,2110 350,560 130,360 1780,770 600,1660 1660,1630 1460,1300 1390,1900 1690,1470 1600,560 2480,980 830,1130 2070,350 890,840 1240,720 2100,1980 2510,1180 720,2150 1280,1070 1580,730 1660,640 2040,2050 50,100 1850,1450 2270,1030 1120,890 1410,2370 180,90 2410,1540 580,1340 1530,460 860,770 1000,1440 2450,1180 1020,2510 1740,1220 150,650 2290,2440 0,540 1210,480 2250,2050 110,2480 420,2260 2470,1290 2530,1670 1530,580 280,1850 2010,1830 610,600 1490,1550 1530,1840 1280,10 2190,410 1770,450 520,440 2180,1490 1690,1650 1950,1370 360,680 980,860 1700,360 1170,450 1150,340 1960,2020 1000,2160 40,1760 560,410 1120,1750 1540,430 1570,720 700,2140 2240,110 1210,1810 1550,330 1450,2350 1830,130 420,2340 180,630 1760,1470 2000,1690 " style="stroke:#f9efff;fill:none;stroke-width:1" />
	<polyline points="2520,1610 1730,1830 820,790 2270,1830 1040,1690 2500,1490 20,1230 740,1530 1850,1100 530,1860 1960,1900 410,310 770,210 650,620 1500,1900 2090,1290 270,650 670,30 140,2050 770,1110 1730,870 850,1230 1780,720 1860,1560 1740,1230 1680,1890 2210,1010 1480,2400 2400,900 2330,1150 350,1390 330,280 920,770 2100,530 790,1010 750,310 1510,140 310,1260 2200,1730 390,780 880,2120 1590,1600 80,540 350,1610 310,2370 1090,1610 120,380 2370,10 1300,1930 830,720 740,850 1710,630 400,100 800,1690 1020,1070 2180,1920 2160,1500 370,1460 700,590 300,2130 670,1870 1190,2220 360,1370 420,330 2280,1710 860,930 20,610 940,2340 1020,140 2020,520 2390,2330 2380,2350 1070,1160 2290,2050 550,690 770,270 440,1680 250,1900 1150,180 1970,1410 2060,720 330,1460 1450,1030 120,2220 760,1010 2280,2430 670,1800 530,1130 820,2380 1410,2220 370,2260 530,2340 2340,2180 1820,1810 990,870 490,2280 330,1590 1310,270 280,2260 390,110 620,730 1080,200 1500,2250 1810,2240 470,1880 1700,870 680,1680 1560,520 1160,1770 1200,1210 1690,2240 2280,1170 2120,70 100,180 250,320 1530,1100 1490,180 1610,2300 2260,2210 2480,1650 490,440 1960,900 160,710 520,840 1680,1820 880,1630 630,1070 2180,210 1780,920 450,2420 2500,740 2020,1970 890,720 1010,1010 540,1010 970,1680 420,700 1600,1310 1680,590 1250,1010 1050,2350 520,1770 1060,1520 200,2060 1090,2250 380,1780 460,210 1050,1010 2470,790 1040,2080 880,1160 30,1050 400,2180 400,2140 570,120 1000,1580 2090,1880 390,970 1940,1080 1510,10 870,910 810,260 1220,1490 640,720 2100,2550 0,2240 2550,0 2550,1960 0,360 160,10 10,0 30,0 10,30 40,30 10,0 0,0 0,0 0,10 170,0 330,490 650,160 810,970 320,1130 1290,1450 480,1610 1770,2400 2550,2180 0,80 10,10 0,10 630,330 2440,1510 1580,1530 2400,980 1610,2270 240,1970 1310,840 460,1390 2310,880 800,1390 2080,710 2360,1280 2310,1900 980,1860 2500,810 1010,1660 1770,1440 340,1860 0,1700 1900,0 2190,1880 800,2280 0,1290 800,1200 1130,260 2510,1640 1870,1090 140,580 2440,1350 1040,2110 1640,2430 400,170 2100,950 980,40 1370,1810 1560,2220 560,1620 420,2070 120,1070 240,1840 2350,100 2320,430 1690,610 1570,1430 1230,1370 480,1430 2120,460 1780,2430 890,2230 2240,2380 730,2490 220,1280 2390,1120 1960,1880 960,160 440,40 400,2160 290,310 220,2540 1220,850 " style="stroke:#1098ff;fill:none;stroke-width:1" />
	<polyline points="0,1690 430,1770 1820,1740 1370,1960 2050,1330 570,1590 90,1950 2180,630 1080,280 1320,2350 1930,0 1940,850 1820,190 970,150 2230,690 520,1300 1620,2510 1040,1740 2410,690 2060,1590 1780,1000 50,1820 0,150 1790,730 880,520 380,2340 40,2250 1000,2020 1780,1220 2240,220 2160,930 2020,270 580,80 90,980 810,2300 1790,600 2200,400 1610,1610 2050,260 1920,600 970,700 1130,2130 1720,880 2470,1060 2290,120 720,1380 490,1960 210,1040 2180,610 2240,1520 1560,230 1080,1060 1490,60 100,60 1810,2250 1320,190 2190,680 1470,750 1620,2280 1700,2510 420,1890 950,330 50,1090 1460,1610 970,440 2080,1360 2470,10 700,1980 2170,740 110,2000 2450,550 1230,30 2360,1710 760,880 1010,10 260,2000 1650,640 2380,1360 1360,2500 1120,1950 40,1540 860,1400 2080,1770 670,350 170,1950 50,1690 800,1540 1950,1510 290,1760 80,1770 1470,180 1120,1480 30,650 940,2480 2330,100 1860,1900 1020,340 1960,810 1820,1000 570,610 2000,2240 260,1180 850,2360 150,1460 2290,980 1460,680 0,60 2000,0 760,2040 370,530 160,160 2000,1650 1950,2400 2220,720 1600,130 50,2300 1410,390 2240,780 1870,1470 1310,780 880,1460 260,470 2340,450 1330,1600 2320,1640 1730,130 410,1680 520,1200 1340,1770 2440,1060 140,100 2550,0 790,1830 1290,2140 1310,1840 350,2190 2040,80 210,2090 1640,1860 1930,170 2400,1240 1370,150 710,1790 1470,520 190,1170 1200,130 2360,1080 2370,1180 1980,1660 1270,830 1380,490 280,2160 2390,470 0,520 1110,2260 110,1830 800,260 1650,290 2400,820 830,1710 1040,460 2390,1310 1050,1890 1530,1300 980,240 1960,1510 1160,10 1380,1760 980,530 30,2440 880,2310 120,840 2250,50 390,2180 100,2170 180,1370 1720,960 700,260 330,840 1930,1130 520,330 2140,1920 2530,750 870,700 1540,650 420,530 480,70 2320,800 1800,1760 1170,570 940,0 1940,190 260,410 510,740 180,60 1970,1030 800,2160 250,10 1620,1660 280,1920 1870,1030 790,1330 930,530 620,1740 1470,1930 330,100 1600,0 270,1530 2470,340 860,610 1820,350 2080,1490 1930,2280 90,1300 140,1980 2430,70 60,1270 2060,1770 1180,2500 960,2350 1500,2000 340,450 2190,800 150,1330 1400,1460 910,2120 720,1600 1730,400 1080,20 2030,810 1110,90 2260,2080 1270,1930 2200,690 790,2050 2540,850 1020,1560 1860,2340 100,2300 1920,350 2300,1260 1320,2390 60,1110 2140,520 2320,290 920,870 250,250 1130,740 1950,750 2420,1830 " style="stroke:#1192ff;fill:none;stroke-width:1" />
	<polyline points="900,980 2020,2120 1290,80 2220,1280 1860,430 80,850 590,640 1040,2080 120,220 2290,2100 1680,2340 280,650 580,2080 2290,730 690,960 1280,1860 0,2440 850,1140 510,1230 2030,1630 180,1870 1900,660 1200,220 10,500 370,550 1000,1730 400,400 1290,2490 1400,1110 330,880 860,1690 2100,1650 220,2100 320,1480 430,1050 680,1900 2260,2530 2040,700 1700,940 850,790 2500,2290 1850,1010 430,50 340,450 240,1420 1620,580 150,2250 680,260 720,1140 1370,540 330,1120 90,890 1170,1240 1960,1770 1600,1380 1290,1460 2530,60 2280,1200 1370,920 400,1360 1550,720 1360,1580 280,1760 2280,1030 1700,330 190,60 70,1200 460,610 1900,40 2360,1600 800,100 280,2230 1000,820 2060,30 550,830 240,1820 1950,1420 170,1710 1880,1280 780,2030 500,280 130,1860 390,1540 0,1410 1220,50 60,470 2050,230 480,1280 860,810 60,1360 990,1500 1270,740 2410,1430 1590,2300 490,220 1280,1280 170,160 700,2270 340,1880 1040,1500 2270,2400 270,970 1960,280 0,470 1920,220 420,2070 160,1410 1910,380 1240,1910 1950,1670 1620,1900 2550,0 870,2550 2180,0 120,30 10,0 20,0 30,0 0,0 160,30 2440,2160 1920,0 920,1840 1320,640 2280,590 1780,590 120,240 1630,510 2320,630 1090,90 1780,2440 1350,700 2110,1750 480,680 2130,820 1610,2040 1170,1860 1600,2000 1840,920 930,1280 1140,790 1640,1280 30,610 940,320 0,0 950,1280 0,2550 1960,0 400,170 10,10 0,20 10,30 30,30 50,10 10,0 0,0 0,0 10,170 0,330 490,650 810,2400 970,1130 1290,160 1770,2410 320,1450 1610,1930 2090,480 2250,2550 2180,0 80,10 30,10 10,630 160,2500 400,210 970,2350 1570,790 2070,2340 610,2550 0,340 600,2060 780,1230 1220,310 2380,120 1960,1520 2400,740 400,1330 780,50 940,490 1300,2420 450,370 2250,60 620,1780 1690,1890 2310,400 1550,2480 2310,1310 1830,1560 1180,180 1750,2100 1010,870 2070,600 2290,100 1870,630 1740,2100 1070,1650 2390,1200 2270,0 1890,1440 1280,210 750,0 340,1710 1930,1900 500,530 750,1730 1680,320 1300,2330 400,920 1880,140 1160,2340 130,50 1290,340 40,1280 2110,1440 1160,370 960,90 2240,2340 1000,1410 2210,1290 2160,640 2160,480 1310,820 80,1640 370,1020 580,2180 1840,1960 520,1960 190,1280 770,1510 2070,600 230,2320 1760,870 1660,1170 790,1260 1590,300 2180,2200 1750,1740 1400,2210 200,780 1700,190 1900,1140 " style="stroke:#128cff;fill:none;stroke-width:1" />
	<polyline points="90,320 1960,2290 370,980 1880,2120 1370,330 2410,700 380,680 2000,1950 660,1370 2090,1070 220,40 570,1480 1410,1340 1940,1080 1700,980 2450,2150 1540,1840 2340,900 160,2500 2510,1150 350,2060 580,170 2400,2540 0,1220 1110,0 910,480 720,710 100,920 670,2320 2490,1280 2360,710 1150,1960 450,1980 1870,690 1210,340 90,980 160,300 1210,2280 2500,830 1430,1590 270,590 2490,1830 250,1400 1300,640 1300,670 670,1460 2360,760 260,60 360,0 1410,2320 1460,2160 1370,850 750,80 1690,50 10,0 650,1020 520,510 390,2190 1080,1300 1700,330 660,590 40,1950 380,10 1730,510 640,1280 1190,1370 860,780 340,1140 30,2290 2320,2480 740,1090 650,440 1420,150 1330,90 1540,1570 2210,1610 1260,1210 180,1020 1580,190 1230,730 480,1650 430,2070 960,950 1310,850 810,1840 380,60 400,1640 350,1620 360,2110 2440,1120 780,2150 2110,1420 630,1090 2490,1120 680,270 2480,270 1080,970 770,50 2210,280 710,1460 860,1960 1420,80 1810,1890 1930,1480 1970,2460 2260,1690 2480,1890 1670,1040 1500,680 2430,1890 80,550 650,860 720,1790 1600,240 1790,820 2450,890 1410,0 930,1630 460,2180 910,40 180,750 2250,1530 1520,2110 1930,180 250,1820 450,1440 470,790 40,2430 1770,820 1520,2420 1730,30 1020,210 160,110 770,880 820,640 2120,110 10,1630 190,690 970,2140 1330,1790 290,1920 360,1140 1050,270 150,990 270,580 1800,1250 1990,2190 250,200 50,490 2140,1130 1890,110 1510,60 10,1850 780,1330 1080,320 800,2500 1380,1770 1740,180 1550,1350 390,1890 160,2380 1610,200 1850,500 1770,2050 520,1180 2390,750 980,1380 1610,1320 0,1260 1110,2190 560,2000 930,340 780,380 2310,620 160,1140 1000,2260 2120,2140 990,330 500,560 120,430 1330,1120 170,1840 1390,2400 2360,1670 20,90 360,970 2160,640 980,2240 20,1080 560,1420 860,1620 2370,1700 2130,2260 1830,1150 1510,2110 130,1350 1770,1410 320,2390 2520,1260 1260,2480 520,2090 300,1420 750,480 1720,480 1870,2070 370,2130 430,770 670,1320 1780,2190 1150,1330 960,460 2500,200 160,400 2360,620 1460,1930 190,1390 1210,1360 820,420 1850,2300 1850,1000 10,2210 1520,550 1300,720 1650,510 0,290 1360,650 2100,1770 1800,2310 1380,490 1000,860 1110,180 550,850 1050,920 710,2490 1830,2420 440,2280 680,990 990,0 530,800 1540,2320 520,1350 1480,2310 1210,640 860,90 910,1910 1390,200 1190,2410 1600,1180 1920,1950 1580,140 " style="stroke:#1386ff;fill:none;stroke-width:1" />
	<polyline points="2230,2300 910,1010 2150,1910 300,1350 790,1870 2520,1100 850,10 330,850 1410,1760 1020,80 1770,850 1350,80 240,110 0,1670 530,240 1400,820 1170,1020 1170,1810 380,2090 1030,30 1060,1310 510,690 410,1720 2310,1190 730,1490 1730,1960 850,780 400,1690 610,690 1820,920 80,1900 600,2060 1860,720 690,500 260,1810 1040,1860 430,1860 810,2360 2110,610 520,730 1570,360 1300,840 100,970 830,420 1060,110 1970,1700 2270,500 1520,1400 1010,1460 980,640 1150,80 390,210 130,1350 1830,2080 1450,1010 2270,1310 730,2110 1240,1450 1670,940 520,2540 2380,140 1860,460 690,650 400,850 320,1620 160,1000 1920,2090 10,1490 450,1410 600,710 1180,1170 1870,1790 1030,1490 1920,690 1080,850 390,180 370,1520 2250,2230 780,1420 20,20 820,180 140,130 730,140 1540,130 250,10 1340,1500 1320,120 320,1690 130,380 820,320 50,260 10,640 750,160 130,20 920,1380 990,710 830,2310 1670,210 2480,2290 1520,490 2380,1580 2180,2460 2150,1570 1260,1600 2180,2200 2430,2070 2530,190 2260,30 1340,680 50,80 1960,1040 290,2110 1200,300 1290,1960 1290,1980 1650,0 2150,1920 330,580 280,2450 2150,720 1610,2200 2060,520 720,1690 770,2010 1460,1080 60,1380 1620,1430 1640,760 10,1970 1120,1920 750,1360 340,2120 190,290 2000,1130 310,640 2250,1300 2280,50 50,400 170,1450 1600,2170 800,480 830,1830 2410,2110 2270,2270 2260,310 1640,680 300,1210 2300,1760 260,1790 530,1920 370,500 960,680 680,920 130,0 1480,1770 1440,900 500,220 640,660 360,2060 1550,2230 1620,80 1630,1740 2060,2270 2380,620 580,2280 580,1180 2390,2110 1650,1200 2110,2340 1180,2370 1350,1120 470,2490 2480,2510 2550,0 1920,170 970,990 1850,2330 1440,2360 1260,1980 20,520 1170,2330 2340,2540 1750,2550 1960,0 380,170 10,10 0,20 20,10 30,40 30,10 10,0 0,0 0,0 10,170 0,330 490,650 810,970 1130,1290 160,1450 1610,2400 320,1930 2250,1770 480,2550 2180,0 80,10 20,10 10,630 160,2500 20,1600 430,2240 2000,2120 790,2230 620,1670 2470,1500 2290,590 2390,1260 530,2150 2070,950 1560,1280 1120,1300 1630,480 1060,1390 30,1940 2340,2200 320,650 1610,160 2060,980 70,2270 1130,2020 1460,2350 1670,1260 2550,0 2310,1980 550,20 1270,2070 2260,720 570,2390 2470,2470 2410,1500 770,850 1550,780 2510,2520 2480,2460 2220,2040 1000,210 840,10 210,1170 90,450 1210,140 930,2340 " style="stroke:#1480ff;fill:none;stroke-width:1" />
	<polyline points="1850,1820 1320,1610 1390,700 1420,1490 1660,2120 2190,30 1480,0 1990,1440 1980,380 1940,650 2280,280 350,500 920,1070 1650,1830 1530,140 280,1090 1490,2120 1920,80 740,2320 290,2030 230,1780 1400,600 1550,400 2370,770 220,1520 2340,930 810,50 920,1900 940,600 1250,650 640,1140 1760,2020 2400,2190 230,2070 2230,790 1590,1100 730,1720 1240,600 180,80 130,330 1810,340 640,1540 1780,2000 1740,640 750,40 720,20 1090,2120 2160,1520 260,530 390,1320 970,2350 400,1500 1320,1630 980,1930 370,60 1670,1630 800,1560 30,2370 1310,440 1720,900 1940,350 10,150 1000,1550 20,670 1690,560 460,160 20,160 2100,1440 1290,1860 2290,1380 1560,1350 330,1450 2280,1120 240,170 750,1380 1810,670 1310,1650 480,160 1490,1790 1490,2150 290,1230 1250,370 1690,1620 1270,1900 1590,2390 1020,20 940,10 100,2360 970,1520 1490,840 350,1920 1380,440 2000,740 910,360 330,530 1030,320 320,480 40,1750 1900,880 910,850 1860,0 700,660 720,1880 1300,250 1520,1600 80,510 640,260 410,1850 1630,410 1320,230 1000,1300 280,1000 2080,760 1740,2340 520,420 830,10 1310,330 1490,1860 1580,1220 420,800 400,990 1490,2280 210,1510 850,170 220,1340 2340,1950 1130,100 2010,200 640,960 1440,2080 240,2460 1000,1370 60,2540 2190,80 240,390 330,290 550,1360 1950,2330 850,1210 2200,2450 1200,1540 1240,300 330,2470 2050,2280 560,960 2060,2310 420,1020 1810,1420 1780,40 1190,1150 660,1290 1920,1980 400,320 1360,180 600,1220 1070,640 640,280 1160,1130 50,510 1350,1300 1400,900 1960,900 2210,730 840,240 1720,1920 370,1120 1420,1000 670,1790 670,1810 1340,2400 140,1090 2120,1500 670,1000 480,200 2160,70 960,60 40,1860 340,330 820,960 920,2210 1960,250 510,1180 720,1290 2240,1120 1410,1140 160,510 660,880 2280,130 330,2350 2350,1650 230,1760 1050,20 410,1220 100,510 640,940 40,40 1380,1200 830,2370 1320,2350 2270,950 510,940 530,1740 1770,2360 1430,60 1820,2100 2490,1580 2140,2160 2020,90 1320,10 650,680 520,760 1030,1160 2000,1340 340,340 1640,2320 80,1910 1130,1000 2220,690 750,1610 1730,480 610,2020 1910,620 2510,1920 1120,1380 2400,50 300,280 20,1100 410,1940 2300,1520 2500,2400 2290,1940 130,420 1390,410 1410,50 1620,0 210,850 680,600 460,2080 1940,1020 1790,1610 1320,1760 910,0 1990,1150 1630,0 20,0 300,1600 710,1220 1340,1660 2480,2490 2060,790 " style="stroke:#157aff;fill:none;stroke-width:1" />
	<polyline points="1870,2550 0,1140 920,1710 1630,2500 2230,1880 600,2390 320,370 1460,510 810,1470 1950,2220 780,20 1560,2140 1220,880 290,1760 260,1650 830,1630 30,1860 1330,1930 610,220 1860,2040 620,1980 370,260 1700,1280 270,750 1810,2360 2110,1780 680,1660 140,970 80,1490 650,270 1610,930 2320,650 890,1980 120,1020 1470,1650 1600,1420 220,850 960,1770 2320,650 1470,1020 500,2220 1020,2410 50,1610 650,360 1340,1960 670,660 180,260 1340,1370 880,1800 820,80 2100,860 2440,1620 330,300 260,1400 1160,1060 1920,320 1440,140 730,2420 1830,500 1670,1250 1890,300 1150,810 1020,1960 2350,1480 2390,2500 2440,2270 360,450 510,720 1390,670 910,120 130,560 570,120 1080,2240 2200,530 320,1300 810,1010 1940,1210 340,1800 900,260 2320,170 230,1280 980,1000 690,1000 970,1700 1300,1120 1970,1300 1380,920 450,1620 2170,590 1220,2090 150,640 920,490 1670,670 1670,810 170,560 250,640 420,2010 1150,640 10,200 2150,100 1600,440 1710,1340 1400,2290 1920,860 20,850 20,260 900,1460 1920,1520 1360,350 350,830 960,1660 480,2360 1330,1210 350,710 1300,2360 1440,210 740,1140 580,0 790,1620 1520,2330 2520,1000 2440,1180 870,600 550,1730 2490,1590 1740,760 10,130 1200,1820 1620,70 740,850 80,1400 1570,1860 50,2140 530,760 1680,2080 1930,840 1260,1280 130,980 420,420 170,2270 1000,480 160,170 2090,1620 950,1110 1430,1980 920,2120 230,1060 1890,1880 2130,1030 1660,1840 2400,470 1450,270 770,80 200,480 1650,210 560,520 360,1820 2210,2240 580,800 2290,920 1540,1100 1470,1360 1970,1320 460,1470 390,1970 200,1930 2000,570 2440,710 1610,1030 1750,1750 1670,2380 1900,1880 2030,1030 1260,1590 310,2470 170,1120 1600,680 540,400 1040,1580 1160,2350 1240,920 720,2520 1750,1760 960,1310 690,960 700,2540 440,1380 860,830 1560,1090 1100,1020 1330,2350 430,1720 430,580 340,980 1800,130 1340,410 970,1390 1920,960 430,980 640,2380 20,640 330,2310 880,0 780,430 0,1710 650,1010 2020,730 160,410 1300,20 2280,2170 190,330 820,170 510,230 2050,1920 340,1810 1750,2060 2510,1270 190,2110 2480,1670 830,600 930,970 2250,1600 1300,1280 520,800 2320,370 1640,2160 230,520 2480,1090 650,990 700,2000 1570,460 320,600 760,1730 620,170 370,1680 880,2060 1480,520 2080,1330 2030,1570 1950,2030 1740,2520 830,1580 1350,2500 1430,650 950,1570 1170,1870 1170,2220 2220,2430 1440,800 2410,2190 " style="stroke:#1674ff;fill:none;stroke-width:1" />
	<polyline points="2320,1900 1590,2390 630,2480 100,1120 1670,1790 500,1900 950,1870 1410,1730 1910,1190 1990,2420 2550,1960 0,400 160,10 10,0 20,10 30,20 60,30 10,10 0,0 0,0 0,10 170,0 330,490 650,810 2400,970 1130,160 1290,1450 1610,1770 1930,320 2090,2250 480,2410 2550,2180 0,80 10,10 0,10 630,160 2480,90 650,870 1660,680 1630,1900 1290,2440 2230,1750 1570,1980 790,860 1630,870 2390,2530 310,450 2240,1420 1220,360 1920,1460 1330,320 960,850 2020,30 1380,1540 100,1430 2080,2300 440,460 1810,1480 320,370 2280,1660 1900,2540 1580,1090 1680,190 2150,1670 1580,2550 0,1960 160,300 2390,1570 1150,1120 1680,2380 610,1250 2320,1870 2420,2270 2370,1130 1150,0 40,810 1360,60 2140,980 2010,1040 1330,990 690,160 700,80 790,440 460,1740 360,320 1500,1650 20,440 920,270 240,420 1800,0 350,2260 240,340 1050,680 2020,2020 1280,1940 2120,2160 1700,980 1530,10 800,850 40,210 1730,1670 230,1490 260,670 1790,2010 2540,1210 2220,1240 170,30 1490,1530 1880,1070 1220,300 1720,1830 2150,1590 1670,1900 560,1010 970,730 520,20 560,2150 1710,160 2010,1400 1320,1040 1670,2320 2020,580 1500,1830 320,2010 2410,990 940,1030 2410,660 1980,2320 320,50 0,1200 2360,600 680,2020 720,710 1440,730 1550,90 2190,380 70,2450 310,1800 1140,410 1660,1400 670,1480 2080,1810 1320,1960 1760,220 480,2180 1670,420 260,270 1300,1230 330,1930 790,60 1010,1170 1030,750 2480,2490 1240,360 500,2360 150,2230 600,2490 2350,330 490,1920 1440,100 220,1710 1620,1330 2400,270 1080,480 1620,10 1350,50 2520,1590 1690,2340 360,570 2080,1010 120,1130 1420,30 1220,610 1220,510 1540,790 40,2180 2250,760 20,760 1860,1250 260,800 1440,1500 920,2530 2440,2300 530,2420 730,2060 1240,2330 1390,2100 1030,10 1350,2340 1770,500 1930,860 1700,2160 500,40 1690,1910 600,100 80,30 1600,1610 350,1930 1850,2160 670,800 1280,1440 40,680 740,1110 420,1750 750,1740 1070,2310 1830,2170 2030,2240 30,1170 40,1940 1740,850 920,1800 1170,500 570,1670 2200,860 1320,20 240,2280 1320,190 2020,2060 2520,1510 1450,390 2320,1310 1980,2280 1340,2300 1060,2290 460,2070 140,820 2180,1020 1870,880 260,2290 1800,540 910,1590 920,890 480,930 2320,2500 2230,1050 720,1260 120,600 1100,370 1320,980 2180,100 1650,10 100,2050 320,120 1440,1840 1940,20 140,1140 1480,1650 2190,1330 840,80 " style="stroke:#176eff;fill:none;stroke-width:1" />
	<polyline points="2140,1930 1300,100 1980,170 1340,320 690,590 410,2440 1150,1670 2060,2160 30,350 1670,1730 1400,170 1610,1850 700,2000 970,100 160,1480 2550,0 400,1490 400,2130 330,1470 1150,2530 1790,310 1000,210 640,930 1000,1340 330,920 2490,1880 100,800 350,1640 400,1720 730,90 2070,1590 1080,1060 530,2250 2160,670 20,1600 1970,520 780,180 1090,950 2300,2170 1860,570 1840,2060 1480,630 660,700 1580,180 990,1290 1160,2010 1190,2360 1040,1190 2200,540 370,2240 480,1930 0,1440 2090,120 30,1600 260,130 1040,2060 790,1870 2490,2000 350,1720 570,2130 1200,1260 1910,2150 1820,200 490,2080 340,1840 690,2250 890,1840 2300,1660 2210,730 1020,540 1500,10 460,10 2240,1270 1630,1490 710,350 850,1520 2430,1160 2370,1390 2030,2140 800,2000 150,1770 2320,2140 1250,460 1950,2070 1180,2450 910,1840 1910,840 2360,20 1580,1590 1970,40 1150,1190 880,1040 980,680 660,0 2170,1420 740,1570 270,200 970,190 1110,300 1810,1030 2370,1740 10,730 1920,390 710,440 400,80 220,160 1510,1170 2450,980 2400,280 1910,1590 1240,1280 470,150 940,350 2070,1350 2540,2070 1940,1760 410,1890 40,530 1450,1680 1920,830 2000,580 1740,760 1050,2320 2400,200 710,2080 480,650 430,840 810,120 1940,510 2470,780 2120,1380 2320,2240 1690,600 170,140 360,2490 2280,1490 1100,2030 280,1420 1760,1730 740,120 1170,560 60,1380 380,1950 190,2120 850,2320 1020,850 1120,800 20,840 420,1880 400,710 1230,1620 40,2090 1850,2200 980,340 240,1430 10,710 670,700 2160,2120 210,1960 1090,260 1910,50 170,2110 1590,1110 1500,1130 1860,340 340,2100 1130,560 2170,450 2300,2410 1570,600 2290,1310 1610,560 20,440 570,1580 570,840 980,360 120,360 1420,2220 2040,2080 2320,1200 2150,430 590,970 1950,1330 780,810 1370,2000 860,260 2090,1210 2220,370 540,900 1730,1820 1700,1380 2450,2180 1810,2380 2270,1600 1540,2070 1210,940 320,2440 2550,0 1330,80 1970,1070 1830,700 160,310 2290,1430 640,1120 1680,2360 440,2170 1490,490 290,170 1800,300 2520,1910 2300,2070 1370,130 2320,1050 2320,2550 0,930 2520,680 210,600 950,2100 1450,680 170,180 1360,2260 540,550 240,1390 1140,460 2550,0 2490,960 490,740 480,1610 1280,320 1420,950 1360,1010 210,1100 910,1900 620,680 2270,190 610,710 150,1410 2040,1890 1740,420 980,530 50,490 1770,2150 1160,1200 2180,50 1480,530 1230,1560 1360,810 1290,500 1440,910 1890,2190 " style="stroke:#1868ff;fill:none;stroke-width:1" />
	<polyline points="470,2370 2350,2290 2540,130 2130,1710 1020,70 2390,1950 2360,800 1690,1100 0,970 350,2020 90,740 520,450 250,980 2310,1480 670,1370 100,50 1940,1840 260,1400 990,910 2040,150 560,2530 1240,2220 2020,2080 2180,610 1070,1190 1900,1890 2550,0 580,2360 1310,840 300,2380 2110,2450 2540,310 2400,720 1450,770 1560,410 2150,430 2210,2500 1850,980 840,2140 1710,2190 2490,1270 2550,2170 " style="stroke:#1929fb;fill:none;stroke-width:1" />
</svg>